<?xml version="1.0" encoding="UTF-8"?>
<svg id="Conteudo" xmlns="http://www.w3.org/2000/svg" viewBox="0 0 1080 1080">
  <g>
    <polygon points="150.73 509.14 92.41 609.23 36.58 609.23 50.44 633.03 106.09 633.03 164.5 532.78 150.73 509.14" style="fill: #bb9a67; stroke-width: 0px;"/>
    <polygon points="264.04 609.23 164.7 438.39 136.25 438.39 50.44 585.67 77.99 585.67 150.47 461.25 250.36 633.03 305.6 633.03 319.47 609.23 264.04 609.23" style="fill: #bb9a67; stroke-width: 0px;"/>
  </g>
  <g>
    <g>
      <path d="M386.89,608.1h17.16v3.37h-13.33v7.47h13.06v3.37h-13.06v7.97h13.33v3.37h-17.16v-25.55Z" style="fill: #fff; stroke-width: 0px;"/>
      <path d="M420.32,614.04v19.61h-3.83v-25.55h3.95l13.91,19.15v-19.15h3.83v25.55h-3.72l-14.13-19.61Z" style="fill: #fff; stroke-width: 0px;"/>
      <path d="M463.68,607.68c4.79,0,7.97,2.18,10.11,5.06l-3.1,1.8c-1.46-1.95-4.02-3.45-7.01-3.45-5.32,0-9.31,4.06-9.31,9.81s3.98,9.84,9.31,9.84c2.83,0,5.25-1.38,6.47-2.53v-4.6h-8.2v-3.37h12.03v9.38c-2.45,2.72-5.98,4.52-10.3,4.52-7.32,0-13.25-5.29-13.25-13.25s5.94-13.21,13.25-13.21Z" style="fill: #fff; stroke-width: 0px;"/>
      <path d="M486.53,608.1h17.16v3.37h-13.33v7.47h13.06v3.37h-13.06v7.97h13.33v3.37h-17.16v-25.55Z" style="fill: #fff; stroke-width: 0px;"/>
      <path d="M519.97,614.04v19.61h-3.83v-25.55h3.95l13.91,19.15v-19.15h3.83v25.55h-3.72l-14.13-19.61Z" style="fill: #fff; stroke-width: 0px;"/>
      <path d="M569.1,622.24h-14.13v11.41h-3.83v-25.55h3.83v10.73h14.13v-10.73h3.83v25.55h-3.83v-11.41Z" style="fill: #fff; stroke-width: 0px;"/>
      <path d="M602.42,628.37h-12.53l-2.07,5.29h-4.21l10.15-25.55h4.79l10.15,25.55h-4.22l-2.07-5.29ZM591.01,624.96h10.3l-5.17-13.52-5.13,13.52Z" style="fill: #fff; stroke-width: 0px;"/>
      <path d="M628.04,623.81h-4.79v9.84h-3.83v-25.55h10.77c4.86,0,8.2,3.14,8.2,7.85s-3.1,7.05-6.36,7.47l6.55,10.23h-4.44l-6.09-9.84ZM629.69,611.48h-6.44v8.96h6.44c2.76,0,4.75-1.8,4.75-4.48s-1.99-4.48-4.75-4.48Z" style="fill: #fff; stroke-width: 0px;"/>
      <path d="M650.75,608.1h3.83v25.55h-3.83v-25.55Z" style="fill: #fff; stroke-width: 0px;"/>
      <path d="M684.11,628.37h-12.53l-2.07,5.29h-4.21l10.15-25.55h4.79l10.15,25.55h-4.22l-2.07-5.29ZM672.69,624.96h10.3l-5.17-13.52-5.13,13.52Z" style="fill: #fff; stroke-width: 0px;"/>
      <path d="M718.65,608.1h17.16v3.37h-13.33v7.47h13.06v3.37h-13.06v7.97h13.33v3.37h-17.16v-25.55Z" style="fill: #fff; stroke-width: 0px;"/>
      <path d="M787.78,613.35l-8.27,20.3h-1.61l-8.27-20.3v20.3h-3.83v-25.55h5.48l7.43,18.35,7.43-18.35h5.48v25.55h-3.83v-20.3Z" style="fill: #fff; stroke-width: 0px;"/>
      <path d="M804.93,608.1h3.83v25.55h-3.83v-25.55Z" style="fill: #fff; stroke-width: 0px;"/>
      <path d="M825.95,614.04v19.61h-3.83v-25.55h3.95l13.91,19.15v-19.15h3.83v25.55h-3.71l-14.13-19.61Z" style="fill: #fff; stroke-width: 0px;"/>
      <path d="M857.12,608.1h17.16v3.37h-13.33v7.47h13.06v3.37h-13.06v7.97h13.33v3.37h-17.16v-25.55Z" style="fill: #fff; stroke-width: 0px;"/>
      <path d="M895.35,623.81h-4.79v9.84h-3.83v-25.55h10.77c4.86,0,8.2,3.14,8.2,7.85s-3.1,7.05-6.36,7.47l6.55,10.23h-4.44l-6.09-9.84ZM896.99,611.48h-6.44v8.96h6.44c2.76,0,4.75-1.8,4.75-4.48s-1.99-4.48-4.75-4.48Z" style="fill: #fff; stroke-width: 0px;"/>
      <path d="M934.22,628.37h-12.53l-2.07,5.29h-4.21l10.15-25.55h4.79l10.15,25.55h-4.22l-2.07-5.29ZM922.8,624.96h10.3l-5.17-13.52-5.13,13.52Z" style="fill: #fff; stroke-width: 0px;"/>
      <path d="M968.76,626.99l3.26,1.72c-1.95,2.84-4.86,5.17-9.46,5.4l-.65,1.61c.39-.27.92-.42,1.42-.42,1.46,0,2.53,1.03,2.53,2.53,0,1.99-1.8,3.22-4.06,3.22-1.69,0-3.18-.58-3.95-1.19l.76-1.61c.96.76,2.07,1.11,3.1,1.11,1.19,0,2.26-.5,2.26-1.57,0-.69-.46-1.15-1.38-1.15-.5,0-1.03.23-1.34.58l-1.46-.8.88-2.34c-6.7-.58-11.91-5.75-11.91-13.18,0-7.85,5.82-13.21,13.1-13.21,5.02,0,8.16,2.41,10.15,5.4l-3.26,1.72c-1.34-2.14-3.87-3.72-6.89-3.72-5.17,0-9.15,4.06-9.15,9.81s3.98,9.81,9.15,9.81c3.03,0,5.55-1.57,6.89-3.72Z" style="fill: #fff; stroke-width: 0px;"/>
      <path d="M999.67,628.37h-12.52l-2.07,5.29h-4.22l10.15-25.55h4.79l10.15,25.55h-4.21l-2.07-5.29ZM991.01,602.78c-.96,0-1.73.92-1.73,3.03h-1.95c0-3.07,1.34-5.13,3.83-5.13,1.49,0,2.22,1,2.87,1.88.54.73,1,1.38,1.76,1.38.96,0,1.68-.92,1.68-3.03h1.99c0,3.06-1.34,5.13-3.83,5.13-1.53,0-2.26-1-2.91-1.88-.5-.73-.96-1.38-1.72-1.38ZM988.25,624.96h10.3l-5.17-13.52-5.13,13.52Z" style="fill: #fff; stroke-width: 0px;"/>
      <path d="M1030.32,607.79c7.59,0,12.82,5.61,12.82,13.16s-5.23,13.16-12.82,13.16-12.82-5.61-12.82-13.16,5.23-13.16,12.82-13.16ZM1030.32,611.18c-5.46,0-8.89,4.16-8.89,9.77s3.44,9.77,8.89,9.77,8.89-4.2,8.89-9.77-3.51-9.77-8.89-9.77Z" style="fill: #fff; stroke-width: 0px;"/>
    </g>
    <g>
      <g>
        <path d="M525.61,438.31h19.06v76.06c0,21.51,11.89,35.29,33.97,35.29s33.78-13.78,33.78-35.29v-76.06h19.06v76.43c0,31.33-17.55,51.71-52.84,51.71s-53.03-20.57-53.03-51.52v-76.62Z" style="fill: #fff; stroke-width: 0px;"/>
        <path d="M707.73,515.69h-23.59v48.5h-18.87v-125.88h53.03c23.97,0,40.39,15.48,40.39,38.69s-15.29,34.73-31.33,36.8l32.27,50.39h-21.89l-30.01-48.5ZM715.85,454.92h-31.71v44.16h31.71c13.59,0,23.4-8.87,23.4-22.08s-9.81-22.08-23.4-22.08Z" style="fill: #fff; stroke-width: 0px;"/>
        <path d="M781.91,438.31h19.06v76.06c0,21.51,11.89,35.29,33.97,35.29s33.78-13.78,33.78-35.29v-76.06h19.06v76.43c0,31.33-17.55,51.71-52.84,51.71s-53.03-20.57-53.03-51.52v-76.62Z" style="fill: #fff; stroke-width: 0px;"/>
      </g>
      <polygon points="431.31 438.31 386.89 564.19 407.65 564.19 442.72 458.65 451.69 458.65 486.93 564.19 507.69 564.19 463.26 438.31 431.31 438.31" style="fill: #fff; stroke-width: 0px;"/>
      <polygon points="1016.12 438.31 979.51 528.71 942.9 438.31 915.91 438.31 915.91 564.19 934.78 564.19 934.78 464.17 968.69 547.36 990.33 547.36 1024.24 464.17 1024.24 564.19 1043.11 564.19 1043.11 438.31 1016.12 438.31" style="fill: #fff; stroke-width: 0px;"/>
    </g>
  </g>
  <polygon points="219.89 438.31 192.35 438.31 278.19 585.67 305.74 585.67 219.89 438.31" style="fill: #bb9a67; stroke-width: 0px;"/>
</svg>